<svg xmlns="http://www.w3.org/2000/svg" viewBox="0 0 1766.99 735.39"><rect x="1159.62" y="77.78" width="13.87" height="41.62" rx="6.94" transform="translate(271.96 853.75) rotate(-45)"/><rect x="1198.86" y="117.02" width="13.87" height="41.62" rx="6.94" transform="translate(255.71 892.99) rotate(-45)"/><circle cx="1235.21" cy="167.25" r="6.94" transform="translate(243.52 922.41) rotate(-45)"/><rect x="725.41" y="1.89" width="13.87" height="41.62" rx="6.94" transform="translate(198.45 524.5) rotate(-45)"/><circle cx="761.67" cy="52.03" r="6.94" transform="translate(186.3 553.82) rotate(-45)"/><circle cx="781.19" cy="71.93" r="6.94" transform="translate(177.94 573.46) rotate(-45)"/><rect x="901.79" y="178.67" width="13.87" height="41.62" rx="6.94" transform="translate(125.11 700.99) rotate(-45)"/><circle cx="859.66" cy="150.42" r="6.94" transform="translate(145.42 651.93) rotate(-45)"/><circle cx="879.28" cy="170.04" r="6.94" transform="translate(137.3 671.55) rotate(-45)"/><circle cx="938.14" cy="228.9" r="6.94" transform="translate(112.92 730.41) rotate(-45)"/><rect x="980.28" y="257.12" width="13.87" height="41.62" rx="6.94" transform="translate(92.63 779.47) rotate(-45)"/><rect x="1019.52" y="296.36" width="13.87" height="41.62" rx="6.94" transform="translate(76.37 818.71) rotate(-45)"/><circle cx="1055.87" cy="346.59" r="6.94" transform="translate(64.18 848.13) rotate(-45)"/><rect x="1150.26" y="8.75" width="13.87" height="41.62" rx="6.94" transform="translate(318.03 826.92) rotate(-45)"/><rect x="1189.5" y="47.99" width="13.87" height="41.62" rx="6.94" transform="translate(301.78 866.16) rotate(-45)"/><rect x="1248.36" y="107.01" width="13.87" height="41.62" rx="6.94" transform="translate(277.29 925.07) rotate(-45)"/><circle cx="1284.71" cy="157.24" r="6.94" transform="translate(265.1 954.49) rotate(-45)"/><rect x="1061.32" y="97.69" width="13.87" height="41.62" rx="6.94" transform="translate(229.09 790.08) rotate(-45)"/><rect x="1100.56" y="136.93" width="13.87" height="41.62" rx="6.94" transform="translate(212.84 829.32) rotate(-45)"/><rect x="1159.42" y="195.95" width="13.87" height="41.62" rx="6.94" transform="translate(188.34 888.23) rotate(-45)"/><circle cx="1195.77" cy="246.19" r="6.94" transform="translate(176.15 917.65) rotate(-45)"/><rect x="971.81" y="187.21" width="13.87" height="41.62" rx="6.94" transform="translate(139.57 753) rotate(-45)"/><rect x="1011.05" y="226.45" width="13.87" height="41.62" rx="6.94" transform="translate(123.32 792.24) rotate(-45)"/><rect x="873.53" y="89.15" width="13.87" height="41.62" rx="6.94" transform="translate(180.13 654.79) rotate(-45)"/><circle cx="851.02" cy="80.53" r="6.94" transform="translate(192.32 625.35) rotate(-45)"/><circle cx="909.88" cy="139.38" r="6.94" transform="translate(167.94 684.21) rotate(-45)"/><circle cx="929.5" cy="159" r="6.94" transform="translate(159.81 703.83) rotate(-45)"/><rect x="1069.9" y="285.47" width="13.87" height="41.62" rx="6.94" transform="translate(98.83 851.15) rotate(-45)"/><circle cx="1106.26" cy="335.7" r="6.94" transform="translate(86.64 880.57) rotate(-45)"/><rect x="953.12" y="49.57" width="13.87" height="41.62" rx="6.94" transform="translate(231.43 699.48) rotate(-45)"/><rect x="1011.98" y="108.43" width="13.87" height="41.62" rx="6.94" transform="translate(207.05 758.34) rotate(-45)"/><rect x="1051.22" y="147.67" width="13.87" height="41.62" rx="6.94" transform="translate(190.79 797.58) rotate(-45)"/><circle cx="989.47" cy="99.8" r="6.94" transform="translate(219.24 728.9) rotate(-45)"/><rect x="1110.13" y="206.47" width="13.87" height="41.62" rx="6.94" transform="translate(166.47 856.46) rotate(-45)"/><rect x="1149.37" y="245.71" width="13.87" height="41.62" rx="6.94" transform="translate(150.22 895.7) rotate(-45)"/><circle cx="1185.73" cy="295.95" r="6.94" transform="translate(138.03 925.12) rotate(-45)"/><circle cx="1205.35" cy="315.57" r="6.94" transform="translate(129.9 944.74) rotate(-45)"/><rect x="1060.68" y="216.16" width="13.87" height="41.62" rx="6.94" transform="translate(145.14 824.32) rotate(-45)"/><rect x="903.57" y="59.21" width="13.87" height="41.62" rx="6.94" transform="translate(210.1 667.26) rotate(-45)"/><circle cx="881.06" cy="50.58" r="6.94" transform="translate(222.29 637.82) rotate(-45)"/><circle cx="939.92" cy="109.44" r="6.94" transform="translate(197.91 696.68) rotate(-45)"/><circle cx="1018.36" cy="188.13" r="6.94" transform="translate(165.24 775.19) rotate(-45)"/><circle cx="998.74" cy="168.51" r="6.94" transform="translate(173.37 755.57) rotate(-45)"/><circle cx="979.12" cy="148.89" r="6.94" transform="translate(181.5 735.95) rotate(-45)"/><rect x="1150.03" y="126.81" width="13.87" height="41.62" rx="6.94" transform="translate(234.48 861.33) rotate(-45)"/><circle cx="1107.7" cy="98.78" r="6.94" transform="translate(254.59 812.2) rotate(-45)"/><circle cx="1088.08" cy="79.16" r="6.94" transform="translate(262.72 792.58) rotate(-45)"/><circle cx="1068.46" cy="59.54" r="6.94" transform="translate(270.84 772.96) rotate(-45)"/><rect x="695.57" y="31.73" width="13.87" height="41.62" rx="6.94" transform="translate(168.61 512.14) rotate(-45)"/><circle cx="731.83" cy="81.87" r="6.94" transform="translate(156.46 541.46) rotate(-45)"/><circle cx="751.35" cy="101.77" r="6.94" transform="translate(148.1 561.1) rotate(-45)"/><rect x="871.95" y="208.51" width="13.87" height="41.62" rx="6.94" transform="translate(95.27 688.63) rotate(-45)"/><circle cx="829.82" cy="180.26" r="6.94" transform="translate(115.58 639.57) rotate(-45)"/><circle cx="849.44" cy="199.88" r="6.94" transform="translate(107.46 659.19) rotate(-45)"/><circle cx="908.3" cy="258.74" r="6.94" transform="translate(83.08 718.05) rotate(-45)"/><rect x="950.44" y="286.96" width="13.87" height="41.62" rx="6.94" transform="translate(62.79 767.11) rotate(-45)"/><rect x="989.68" y="326.19" width="13.87" height="41.62" rx="6.94" transform="translate(46.53 806.35) rotate(-45)"/><circle cx="1026.03" cy="376.43" r="6.94" transform="translate(34.34 835.77) rotate(-45)"/><rect x="408.91" y="43.6" width="13.87" height="41.62" rx="6.94" transform="translate(76.26 312.92) rotate(-45)"/><rect x="467.77" y="102.46" width="13.87" height="41.62" rx="6.94" transform="translate(51.88 371.78) rotate(-45)"/><circle cx="445.24" cy="93.8" r="6.94" transform="translate(64.08 342.3) rotate(-45)"/><circle cx="504.19" cy="152.76" r="6.94" transform="translate(39.66 401.26) rotate(-45)"/><rect x="546.49" y="180.81" width="13.87" height="41.62" rx="6.94" transform="translate(19.53 450.39) rotate(-45)"/><circle cx="582.75" cy="230.95" r="6.94" transform="translate(7.38 479.71) rotate(-45)"/><circle cx="602.27" cy="250.85" r="6.94" transform="translate(-0.98 499.35) rotate(-45)"/><rect x="722.87" y="357.59" width="13.87" height="41.62" rx="6.94" transform="translate(-53.81 626.88) rotate(-45)"/><circle cx="680.74" cy="329.34" r="6.94" transform="translate(-33.5 577.82) rotate(-45)"/><circle cx="700.36" cy="348.96" r="6.94" transform="translate(-41.62 597.44) rotate(-45)"/><circle cx="759.22" cy="407.82" r="6.94" transform="translate(-66 656.3) rotate(-45)"/><rect x="801.36" y="436.03" width="13.87" height="41.62" rx="6.94" transform="translate(-86.29 705.36) rotate(-45)"/><rect x="840.6" y="475.27" width="13.87" height="41.62" rx="6.94" transform="translate(-102.55 744.6) rotate(-45)"/><circle cx="876.95" cy="525.51" r="6.94" transform="translate(-114.74 774.02) rotate(-45)"/><rect x="52.91" y="46.25" width="13.87" height="41.62" rx="6.94" transform="translate(-29.89 61.96) rotate(-45)"/><circle cx="30.4" cy="37.62" r="6.94" transform="translate(-17.7 32.52) rotate(-45)"/><rect x="112.23" y="104.82" width="13.87" height="41.62" rx="6.94" transform="translate(-53.93 121.06) rotate(-45)"/><circle cx="148.83" cy="155.31" r="6.94" transform="translate(-66.23 150.73) rotate(-45)"/><circle cx="167.89" cy="174.99" r="6.94" transform="translate(-74.56 169.97) rotate(-45)"/><circle cx="187.81" cy="194.29" r="6.94" transform="translate(-82.37 189.71) rotate(-45)"/><rect x="229.58" y="222.94" width="13.87" height="41.62" rx="6.94" transform="translate(-103.08 238.63) rotate(-45)"/><rect x="288.44" y="281.8" width="13.87" height="41.62" rx="6.94" transform="translate(-127.46 297.49) rotate(-45)"/><circle cx="265.9" cy="273.14" r="6.94" transform="translate(-115.26 268.02) rotate(-45)"/><circle cx="324.85" cy="332.1" r="6.94" transform="translate(-139.68 326.97) rotate(-45)"/><rect x="367.15" y="360.15" width="13.87" height="41.62" rx="6.94" transform="translate(-159.81 376.1) rotate(-45)"/><circle cx="403.41" cy="410.29" r="6.94" transform="translate(-171.96 405.43) rotate(-45)"/><circle cx="422.94" cy="430.19" r="6.94" transform="translate(-180.32 425.06) rotate(-45)"/><circle cx="462.17" cy="469.43" r="6.94" transform="translate(-196.57 464.3) rotate(-45)"/><rect x="543.53" y="536.92" width="13.87" height="41.62" rx="6.94" transform="translate(-233.15 552.6) rotate(-45)"/><circle cx="501.4" cy="508.68" r="6.94" transform="translate(-212.83 503.54) rotate(-45)"/><circle cx="521.02" cy="528.3" r="6.94" transform="translate(-220.96 523.16) rotate(-45)"/><circle cx="579.88" cy="587.16" r="6.94" transform="translate(-245.34 582.01) rotate(-45)"/><rect x="622.02" y="615.37" width="13.87" height="41.62" rx="6.94" transform="translate(-265.63 631.07) rotate(-45)"/><rect x="661.26" y="654.61" width="13.87" height="41.62" rx="6.94" transform="translate(-281.88 670.31) rotate(-45)"/><circle cx="697.61" cy="704.85" r="6.94" transform="translate(-294.07 699.73) rotate(-45)"/><rect x="881.48" y="277.54" width="13.87" height="41.62" rx="6.94" transform="translate(49.25 715.59) rotate(-45)"/><rect x="920.72" y="316.78" width="13.87" height="41.62" rx="6.94" transform="translate(32.99 754.83) rotate(-45)"/><rect x="645.8" y="42.03" width="13.87" height="41.62" rx="6.94" transform="translate(146.75 479.96) rotate(-45)"/><rect x="704.66" y="100.89" width="13.87" height="41.62" rx="6.94" transform="translate(122.36 538.82) rotate(-45)"/><circle cx="682.15" cy="92.27" r="6.94" transform="translate(134.55 509.38) rotate(-45)"/><rect x="783.2" y="179.48" width="13.87" height="41.62" rx="6.94" transform="translate(89.8 617.38) rotate(-45)"/><circle cx="760.7" cy="170.85" r="6.94" transform="translate(101.99 587.94) rotate(-45)"/><circle cx="819.56" cy="229.71" r="6.94" transform="translate(77.61 646.79) rotate(-45)"/><circle cx="839.18" cy="249.33" r="6.94" transform="translate(69.49 666.41) rotate(-45)"/><rect x="979.58" y="375.79" width="13.87" height="41.62" rx="6.94" transform="translate(8.5 813.73) rotate(-45)"/><circle cx="1015.93" cy="426.03" r="6.94" transform="translate(-3.69 843.15) rotate(-45)"/><rect x="792.01" y="367.01" width="13.87" height="41.62" rx="6.94" transform="translate(-40.22 678.53) rotate(-45)"/><rect x="831.25" y="406.25" width="13.87" height="41.62" rx="6.94" transform="translate(-56.48 717.77) rotate(-45)"/><rect x="556.32" y="131.5" width="13.87" height="41.62" rx="6.94" transform="translate(57.27 442.9) rotate(-45)"/><rect x="615.18" y="190.36" width="13.87" height="41.62" rx="6.94" transform="translate(32.89 501.76) rotate(-45)"/><circle cx="592.68" cy="181.74" r="6.94" transform="translate(45.08 472.32) rotate(-45)"/><rect x="693.73" y="268.95" width="13.87" height="41.62" rx="6.94" transform="translate(0.33 580.32) rotate(-45)"/><circle cx="671.23" cy="260.32" r="6.94" transform="translate(12.52 550.88) rotate(-45)"/><circle cx="730.08" cy="319.18" r="6.94" transform="translate(-11.86 609.73) rotate(-45)"/><circle cx="749.7" cy="338.8" r="6.94" transform="translate(-19.99 629.35) rotate(-45)"/><rect x="890.11" y="465.27" width="13.87" height="41.62" rx="6.94" transform="translate(-80.97 776.67) rotate(-45)"/><circle cx="926.46" cy="515.5" r="6.94" transform="translate(-93.16 806.09) rotate(-45)"/><circle cx="248.72" cy="15.52" r="6.94" transform="translate(61.87 180.42) rotate(-45)"/><circle cx="268.34" cy="35.14" r="6.94" transform="translate(53.74 200.04) rotate(-45)"/><rect x="703.07" y="455.95" width="13.87" height="41.62" rx="6.94" transform="translate(-129.17 641.69) rotate(-45)"/><rect x="742.31" y="495.19" width="13.87" height="41.62" rx="6.94" transform="translate(-145.42 680.93) rotate(-45)"/><rect x="330.04" y="83.06" width="13.87" height="41.62" rx="6.94" transform="translate(25.25 268.7) rotate(-45)"/><rect x="369.27" y="122.3" width="13.87" height="41.62" rx="6.94" transform="translate(9 307.94) rotate(-45)"/><rect x="408.51" y="161.54" width="13.87" height="41.62" rx="6.94" transform="translate(-7.26 347.18) rotate(-45)"/><circle cx="307.53" cy="74.43" r="6.94" transform="translate(37.44 239.26) rotate(-45)"/><rect x="467.38" y="220.44" width="13.87" height="41.62" rx="6.94" transform="translate(-31.67 406.06) rotate(-45)"/><rect x="526.24" y="279.3" width="13.87" height="41.62" rx="6.94" transform="translate(-56.05 464.92) rotate(-45)"/><circle cx="503.74" cy="270.68" r="6.94" transform="translate(-43.86 435.47) rotate(-45)"/><rect x="801.16" y="554.21" width="13.87" height="41.62" rx="6.94" transform="translate(-169.91 739.83) rotate(-45)"/><circle cx="837.52" cy="604.44" r="6.94" transform="translate(-182.1 769.25) rotate(-45)"/><circle cx="61.11" cy="6.94" r="6.94" transform="translate(12.99 45.24) rotate(-45)"/><circle cx="80.73" cy="26.56" r="6.94" transform="translate(4.87 64.86) rotate(-45)"/><circle cx="100.35" cy="46.18" r="6.94" transform="translate(-3.26 84.48) rotate(-45)"/><circle cx="119.97" cy="65.8" r="6.94" transform="translate(-11.39 104.1) rotate(-45)"/><circle cx="159.2" cy="105.04" r="6.94" transform="translate(-27.65 143.34) rotate(-45)"/><circle cx="178.82" cy="124.66" r="6.94" transform="translate(-35.77 162.96) rotate(-45)"/><rect x="613.55" y="545.47" width="13.87" height="41.62" rx="6.94" transform="translate(-218.68 604.61) rotate(-45)"/><rect x="652.79" y="584.71" width="13.87" height="41.62" rx="6.94" transform="translate(-234.94 643.85) rotate(-45)"/><rect x="240.52" y="172.58" width="13.87" height="41.62" rx="6.94" transform="translate(-64.27 231.62) rotate(-45)"/><rect x="279.76" y="211.82" width="13.87" height="41.62" rx="6.94" transform="translate(-80.52 270.86) rotate(-45)"/><rect x="319" y="251.06" width="13.87" height="41.62" rx="6.94" transform="translate(-96.77 310.1) rotate(-45)"/><circle cx="218.01" cy="163.95" r="6.94" transform="translate(-52.08 202.18) rotate(-45)"/><rect x="515.27" y="447.41" width="13.87" height="41.62" rx="6.94" transform="translate(-178.13 506.4) rotate(-45)"/><circle cx="492.77" cy="438.78" r="6.94" transform="translate(-165.94 476.96) rotate(-45)"/><circle cx="551.63" cy="497.64" r="6.94" transform="translate(-190.32 535.81) rotate(-45)"/><circle cx="571.25" cy="517.26" r="6.94" transform="translate(-198.44 555.43) rotate(-45)"/><rect x="711.65" y="643.72" width="13.87" height="41.62" rx="6.94" transform="translate(-259.43 702.75) rotate(-45)"/><circle cx="748" cy="693.96" r="6.94" transform="translate(-271.62 732.17) rotate(-45)"/><rect x="910.59" y="366.25" width="13.87" height="41.62" rx="6.94" transform="translate(-4.96 762.15) rotate(-45)"/><rect x="507.72" y="23.79" width="13.87" height="41.62" rx="6.94" transform="translate(119.2 376.98) rotate(-45)"/><rect x="546.96" y="63.03" width="13.87" height="41.62" rx="6.94" transform="translate(102.95 416.22) rotate(-45)"/><circle cx="485.21" cy="15.17" r="6.94" transform="translate(131.39 347.54) rotate(-45)"/><rect x="606.17" y="121.85" width="13.87" height="41.62" rx="6.94" transform="translate(78.7 475.31) rotate(-45)"/><rect x="684.65" y="200.33" width="13.87" height="41.62" rx="6.94" transform="translate(46.19 553.79) rotate(-45)"/><circle cx="642.52" cy="172.08" r="6.94" transform="translate(66.51 504.73) rotate(-45)"/><circle cx="662.14" cy="191.7" r="6.94" transform="translate(58.38 524.35) rotate(-45)"/><rect x="743.52" y="259.17" width="13.87" height="41.62" rx="6.94" transform="translate(21.83 612.66) rotate(-45)"/><rect x="802.38" y="318.03" width="13.87" height="41.62" rx="6.94" transform="translate(-2.55 671.52) rotate(-45)"/><rect x="841.62" y="357.27" width="13.87" height="41.62" rx="6.94" transform="translate(-18.81 710.76) rotate(-45)"/><circle cx="779.87" cy="309.41" r="6.94" transform="translate(9.64 642.08) rotate(-45)"/><rect x="900.53" y="416.07" width="13.87" height="41.62" rx="6.94" transform="translate(-43.13 769.64) rotate(-45)"/><rect x="939.77" y="455.31" width="13.87" height="41.62" rx="6.94" transform="translate(-59.38 808.88) rotate(-45)"/><circle cx="976.13" cy="505.55" r="6.94" transform="translate(-71.57 838.3) rotate(-45)"/><circle cx="995.75" cy="525.17" r="6.94" transform="translate(-79.7 857.92) rotate(-45)"/><rect x="280.59" y="93.94" width="13.87" height="41.62" rx="6.94" transform="translate(3.07 236.92) rotate(-45)"/><circle cx="218.84" cy="46.08" r="6.94" transform="translate(31.51 168.24) rotate(-45)"/><circle cx="238.46" cy="65.7" r="6.94" transform="translate(23.39 187.86) rotate(-45)"/><circle cx="258.08" cy="85.32" r="6.94" transform="translate(15.26 207.48) rotate(-45)"/><rect x="359.06" y="172.45" width="13.87" height="41.62" rx="6.94" transform="translate(-29.45 315.41) rotate(-45)"/><rect x="398.3" y="211.69" width="13.87" height="41.62" rx="6.94" transform="translate(-45.71 354.65) rotate(-45)"/><circle cx="336.56" cy="163.82" r="6.94" transform="translate(-17.26 285.96) rotate(-45)"/><rect x="594.86" y="407.83" width="13.87" height="41.62" rx="6.94" transform="translate(-126.83 551.08) rotate(-45)"/><rect x="653.72" y="466.69" width="13.87" height="41.62" rx="6.94" transform="translate(-151.21 609.94) rotate(-45)"/><rect x="692.96" y="505.93" width="13.87" height="41.62" rx="6.94" transform="translate(-167.46 649.18) rotate(-45)"/><circle cx="631.22" cy="458.06" r="6.94" transform="translate(-139.02 580.5) rotate(-45)"/><rect x="751.88" y="564.73" width="13.87" height="41.62" rx="6.94" transform="translate(-191.79 708.06) rotate(-45)"/><rect x="791.12" y="603.97" width="13.87" height="41.62" rx="6.94" transform="translate(-208.04 747.3) rotate(-45)"/><circle cx="827.47" cy="654.2" r="6.94" transform="translate(-220.23 776.72) rotate(-45)"/><circle cx="847.09" cy="673.82" r="6.94" transform="translate(-228.36 796.34) rotate(-45)"/><rect x="576.87" y="32.67" width="13.87" height="41.62" rx="6.94" transform="translate(133.18 428.48) rotate(-45)"/><rect x="616.11" y="71.91" width="13.87" height="41.62" rx="6.94" transform="translate(116.93 467.72) rotate(-45)"/><rect x="674.97" y="130.77" width="13.87" height="41.62" rx="6.94" transform="translate(92.55 526.58) rotate(-45)"/><circle cx="652.47" cy="122.14" r="6.94" transform="translate(104.74 497.14) rotate(-45)"/><rect x="1443.05" y="1.89" width="13.87" height="41.62" rx="6.94" transform="translate(408.64 1031.94) rotate(-45)"/><circle cx="1479.31" cy="52.03" r="6.94" transform="translate(396.49 1061.27) rotate(-45)"/><circle cx="1498.83" cy="71.93" r="6.94" transform="translate(388.13 1080.9) rotate(-45)"/><rect x="1413.21" y="31.73" width="13.87" height="41.62" rx="6.94" transform="translate(378.8 1019.58) rotate(-45)"/><circle cx="1449.47" cy="81.87" r="6.94" transform="translate(366.65 1048.91) rotate(-45)"/><circle cx="1468.99" cy="101.77" r="6.94" transform="translate(358.29 1068.54) rotate(-45)"/><rect x="1363.43" y="42.03" width="13.87" height="41.62" rx="6.94" transform="translate(356.94 987.4) rotate(-45)"/><rect x="1422.29" y="100.89" width="13.87" height="41.62" rx="6.94" transform="translate(332.56 1046.26) rotate(-45)"/><circle cx="1399.79" cy="92.27" r="6.94" transform="translate(344.75 1016.82) rotate(-45)"/><rect x="1500.84" y="179.48" width="13.87" height="41.62" rx="6.94" transform="translate(299.99 1124.82) rotate(-45)"/><circle cx="1478.34" cy="170.85" r="6.94" transform="translate(312.18 1095.38) rotate(-45)"/><circle cx="1537.19" cy="229.71" r="6.94" transform="translate(287.8 1154.24) rotate(-45)"/><circle cx="1556.81" cy="249.33" r="6.94" transform="translate(279.68 1173.86) rotate(-45)"/><rect x="1323.81" y="121.85" width="13.87" height="41.62" rx="6.94" transform="translate(288.89 982.76) rotate(-45)"/><rect x="1402.29" y="200.33" width="13.87" height="41.62" rx="6.94" transform="translate(256.39 1061.24) rotate(-45)"/><circle cx="1360.16" cy="172.08" r="6.94" transform="translate(276.7 1012.18) rotate(-45)"/><circle cx="1379.78" cy="191.7" r="6.94" transform="translate(268.58 1031.8) rotate(-45)"/><rect x="1294.51" y="32.67" width="13.87" height="41.62" rx="6.94" transform="translate(343.37 935.93) rotate(-45)"/><rect x="1333.75" y="71.91" width="13.87" height="41.62" rx="6.94" transform="translate(327.12 975.17) rotate(-45)"/><rect x="1392.61" y="130.77" width="13.87" height="41.62" rx="6.94" transform="translate(302.74 1034.03) rotate(-45)"/><circle cx="1370.1" cy="122.14" r="6.94" transform="translate(314.93 1004.58) rotate(-45)"/><circle cx="868.26" cy="338.22" r="6.94" transform="translate(15.15 713.02) rotate(-45)"/><circle cx="848.64" cy="318.6" r="6.94" transform="translate(23.28 693.4) rotate(-45)"/><circle cx="829.03" cy="298.98" r="6.94" transform="translate(31.4 673.78) rotate(-45)"/><rect x="250.91" y="123.22" width="13.87" height="41.62" rx="6.94" transform="translate(-26.32 224.51) rotate(-45)"/><rect x="290.15" y="162.46" width="13.87" height="41.62" rx="6.94" transform="translate(-42.58 263.75) rotate(-45)"/><circle cx="228.4" cy="114.59" r="6.94" transform="translate(-14.13 195.07) rotate(-45)"/><circle cx="326.5" cy="212.69" r="6.94" transform="translate(-54.77 293.17) rotate(-45)"/><rect x="702.42" y="574.42" width="13.87" height="41.62" rx="6.94" transform="translate(-213.12 675.93) rotate(-45)"/><rect x="1534.99" y="154.76" width="13.87" height="41.62" rx="6.94" transform="translate(327.47 1141.73) rotate(-45)"/><rect x="1574.23" y="194" width="13.87" height="41.62" rx="6.94" transform="translate(311.22 1180.97) rotate(-45)"/><circle cx="1610.58" cy="244.23" r="6.94" transform="translate(299.03 1210.39) rotate(-45)"/><rect x="1714.13" y="93.59" width="13.87" height="41.62" rx="6.94" transform="translate(423.19 1250.49) rotate(-45)"/><circle cx="1750.48" cy="143.83" r="6.94" transform="translate(411 1279.9) rotate(-45)"/><rect x="1526.51" y="84.85" width="13.87" height="41.62" rx="6.94" transform="translate(374.42 1115.26) rotate(-45)"/><rect x="1565.75" y="124.09" width="13.87" height="41.62" rx="6.94" transform="translate(358.17 1154.5) rotate(-45)"/><rect x="1624.61" y="183.11" width="13.87" height="41.62" rx="6.94" transform="translate(333.68 1213.41) rotate(-45)"/><circle cx="1660.96" cy="233.35" r="6.94" transform="translate(321.49 1242.82) rotate(-45)"/><rect x="1664.84" y="104.12" width="13.87" height="41.62" rx="6.94" transform="translate(401.32 1218.72) rotate(-45)"/><rect x="1704.08" y="143.36" width="13.87" height="41.62" rx="6.94" transform="translate(385.06 1257.96) rotate(-45)"/><circle cx="1740.43" cy="193.59" r="6.94" transform="translate(372.87 1287.37) rotate(-45)"/><circle cx="1760.05" cy="213.21" r="6.94" transform="translate(364.75 1306.99) rotate(-45)"/><rect x="1615.39" y="113.8" width="13.87" height="41.62" rx="6.94" transform="translate(379.98 1186.58) rotate(-45)"/><rect x="368.71" y="240.83" width="13.87" height="41.62" rx="6.94" transform="translate(-74.99 342.26) rotate(-45)"/><rect x="407.95" y="280.07" width="13.87" height="41.62" rx="6.94" transform="translate(-91.24 381.49) rotate(-45)"/><rect x="466.81" y="338.93" width="13.87" height="41.62" rx="6.94" transform="translate(-115.62 440.35) rotate(-45)"/><circle cx="444.3" cy="330.31" r="6.94" transform="translate(-103.43 410.91) rotate(-45)"/><circle cx="660.1" cy="546.39" r="6.94" transform="translate(-193.01 626.79) rotate(-45)"/><circle cx="640.48" cy="526.77" r="6.94" transform="translate(-184.89 607.17) rotate(-45)"/><circle cx="620.86" cy="507.15" r="6.94" transform="translate(-176.76 587.55) rotate(-45)"/><rect x="340.25" y="33.87" width="13.87" height="41.62" rx="6.94" transform="translate(63.02 261.52) rotate(-45)"/><rect x="379.49" y="73.11" width="13.87" height="41.62" rx="6.94" transform="translate(46.77 300.76) rotate(-45)"/><circle cx="317.75" cy="25.25" r="6.94" transform="translate(75.21 232.08) rotate(-45)"/><circle cx="415.85" cy="123.35" r="6.94" transform="translate(34.58 330.17) rotate(-45)"/><rect x="791.77" y="485.07" width="13.87" height="41.62" rx="6.94" transform="translate(-123.77 712.94) rotate(-45)"/><rect x="458.06" y="151.49" width="13.87" height="41.62" rx="6.94" transform="translate(14.36 379.26) rotate(-45)"/><rect x="497.3" y="190.73" width="13.87" height="41.62" rx="6.94" transform="translate(-1.89 418.5) rotate(-45)"/><rect x="556.15" y="249.59" width="13.87" height="41.62" rx="6.94" transform="translate(-26.27 477.36) rotate(-45)"/><circle cx="533.65" cy="240.96" r="6.94" transform="translate(-14.08 447.92) rotate(-45)"/><rect x="1445.21" y="300.84" width="13.87" height="41.62" rx="6.94" transform="translate(197.88 1121.03) rotate(-45)"/><circle cx="1481.47" cy="350.98" r="6.94" transform="translate(185.73 1150.36) rotate(-45)"/><circle cx="1501" cy="370.88" r="6.94" transform="translate(177.38 1169.99) rotate(-45)"/><rect x="1228.76" y="203.09" width="13.87" height="41.62" rx="6.94" transform="translate(203.6 939.35) rotate(-45)"/><rect x="1268" y="242.33" width="13.87" height="41.62" rx="6.94" transform="translate(187.35 978.59) rotate(-45)"/><rect x="1307.24" y="281.57" width="13.87" height="41.62" rx="6.94" transform="translate(171.1 1017.83) rotate(-45)"/><circle cx="1206.25" cy="194.47" r="6.94" transform="translate(215.79 909.91) rotate(-45)"/><rect x="1257.79" y="292.48" width="13.87" height="41.62" rx="6.94" transform="translate(148.9 986.06) rotate(-45)"/><rect x="1297.03" y="331.72" width="13.87" height="41.62" rx="6.94" transform="translate(132.65 1025.29) rotate(-45)"/><circle cx="1235.28" cy="283.85" r="6.94" transform="translate(161.09 956.61) rotate(-45)"/><rect x="634.66" y="328.11" width="13.87" height="41.62" rx="6.94" transform="translate(-58.81 555.87) rotate(-45)"/><circle cx="612.15" cy="319.49" r="6.94" transform="translate(-46.62 526.43) rotate(-45)"/><circle cx="671.01" cy="378.35" r="6.94" transform="translate(-71 585.29) rotate(-45)"/><circle cx="749.45" cy="457.04" r="6.94" transform="translate(-103.67 663.8) rotate(-45)"/><circle cx="729.83" cy="437.42" r="6.94" transform="translate(-95.54 644.18) rotate(-45)"/><circle cx="710.21" cy="417.8" r="6.94" transform="translate(-87.41 624.56) rotate(-45)"/><rect x="81.75" y="135.3" width="13.87" height="41.62" rx="6.94" transform="translate(-84.41 108.43) rotate(-45)"/><circle cx="118.35" cy="185.79" r="6.94" transform="translate(-96.71 138.1) rotate(-45)"/><circle cx="137.41" cy="205.47" r="6.94" transform="translate(-105.04 157.34) rotate(-45)"/><circle cx="157.33" cy="224.77" r="6.94" transform="translate(-112.85 177.08) rotate(-45)"/><rect x="199.09" y="253.42" width="13.87" height="41.62" rx="6.94" transform="translate(-133.56 226.01) rotate(-45)"/><rect x="257.95" y="312.28" width="13.87" height="41.62" rx="6.94" transform="translate(-157.94 284.87) rotate(-45)"/><circle cx="235.42" cy="303.62" r="6.94" transform="translate(-145.74 255.39) rotate(-45)"/><circle cx="294.37" cy="362.58" r="6.94" transform="translate(-170.16 314.35) rotate(-45)"/><rect x="513.05" y="567.41" width="13.87" height="41.62" rx="6.94" transform="translate(-263.63 539.97) rotate(-45)"/><circle cx="470.92" cy="539.16" r="6.94" transform="translate(-243.32 490.91) rotate(-45)"/><circle cx="490.54" cy="558.78" r="6.94" transform="translate(-251.44 510.53) rotate(-45)"/><circle cx="549.4" cy="617.64" r="6.94" transform="translate(-275.82 569.39) rotate(-45)"/><rect x="50.02" y="402.5" width="13.87" height="41.62" rx="6.94" transform="translate(-282.64 164.26) rotate(-45)"/><rect x="108.87" y="461.36" width="13.87" height="41.62" rx="6.94" transform="translate(-307.02 223.11) rotate(-45)"/><circle cx="86.34" cy="452.7" r="6.94" transform="translate(-294.82 193.64) rotate(-45)"/><circle cx="145.29" cy="511.66" r="6.94" transform="translate(-319.24 252.6) rotate(-45)"/><rect x="187.59" y="539.71" width="13.87" height="41.62" rx="6.94" transform="translate(-339.37 301.72) rotate(-45)"/><circle cx="223.85" cy="589.85" r="6.94" transform="translate(-351.52 331.05) rotate(-45)"/><circle cx="243.38" cy="609.75" r="6.94" transform="translate(-359.88 350.68) rotate(-45)"/><circle cx="282.61" cy="649" r="6.94" transform="translate(-376.14 389.92) rotate(-45)"/><circle cx="68.23" cy="196.01" r="6.94" transform="translate(-118.61 105.66) rotate(-45)"/><circle cx="87.85" cy="215.63" r="6.94" transform="translate(-126.74 125.28) rotate(-45)"/><rect x="522.58" y="636.44" width="13.87" height="41.62" rx="6.94" transform="translate(-309.65 566.93) rotate(-45)"/><rect x="561.82" y="675.68" width="13.87" height="41.62" rx="6.94" transform="translate(-325.91 606.17) rotate(-45)"/><rect x="149.55" y="263.55" width="13.87" height="41.62" rx="6.94" transform="translate(-155.24 193.94) rotate(-45)"/><rect x="188.79" y="302.79" width="13.87" height="41.62" rx="6.94" transform="translate(-171.49 233.18) rotate(-45)"/><rect x="228.03" y="342.03" width="13.87" height="41.62" rx="6.94" transform="translate(-187.74 272.42) rotate(-45)"/><circle cx="127.04" cy="254.92" r="6.94" transform="translate(-143.05 164.5) rotate(-45)"/><rect x="286.9" y="400.93" width="13.87" height="41.62" rx="6.94" transform="translate(-212.15 331.3) rotate(-45)"/><rect x="345.76" y="459.79" width="13.87" height="41.62" rx="6.94" transform="translate(-236.53 390.16) rotate(-45)"/><circle cx="323.25" cy="451.17" r="6.94" transform="translate(-224.34 360.71) rotate(-45)"/><rect x="424.3" y="538.38" width="13.87" height="41.62" rx="6.94" transform="translate(-269.1 468.72) rotate(-45)"/><circle cx="401.8" cy="529.75" r="6.94" transform="translate(-256.91 439.27) rotate(-45)"/><circle cx="460.66" cy="588.61" r="6.94" transform="translate(-281.29 498.13) rotate(-45)"/><circle cx="480.28" cy="608.23" r="6.94" transform="translate(-289.41 517.75) rotate(-45)"/><rect x="60.08" y="353.02" width="13.87" height="41.62" rx="6.94" transform="translate(-244.71 156.88) rotate(-45)"/><rect x="99.32" y="392.26" width="13.87" height="41.62" rx="6.94" transform="translate(-260.96 196.12) rotate(-45)"/><rect x="138.56" y="431.5" width="13.87" height="41.62" rx="6.94" transform="translate(-277.22 235.36) rotate(-45)"/><circle cx="37.57" cy="344.39" r="6.94" transform="translate(-232.52 127.44) rotate(-45)"/><rect x="197.42" y="490.4" width="13.87" height="41.62" rx="6.94" transform="translate(-301.63 294.24) rotate(-45)"/><rect x="256.28" y="549.26" width="13.87" height="41.62" rx="6.94" transform="translate(-326.01 353.1) rotate(-45)"/><circle cx="233.78" cy="540.64" r="6.94" transform="translate(-313.82 323.65) rotate(-45)"/><rect x="334.83" y="627.85" width="13.87" height="41.62" rx="6.94" transform="translate(-358.57 431.66) rotate(-45)"/><circle cx="312.33" cy="619.22" r="6.94" transform="translate(-346.38 402.21) rotate(-45)"/><circle cx="371.19" cy="678.08" r="6.94" transform="translate(-370.76 461.07) rotate(-45)"/><circle cx="390.81" cy="697.7" r="6.94" transform="translate(-378.89 480.69) rotate(-45)"/><rect x="108.48" y="579.34" width="13.87" height="41.62" rx="6.94" transform="translate(-390.57 257.4) rotate(-45)"/><rect x="167.34" y="638.2" width="13.87" height="41.62" rx="6.94" transform="translate(-414.95 316.25) rotate(-45)"/><circle cx="144.84" cy="629.58" r="6.94" transform="translate(-402.76 286.81) rotate(-45)"/><rect x="100.17" y="273.95" width="13.87" height="41.62" rx="6.94" transform="translate(-177.06 162.07) rotate(-45)"/><rect x="139.41" y="313.19" width="13.87" height="41.62" rx="6.94" transform="translate(-193.31 201.31) rotate(-45)"/><circle cx="77.67" cy="265.33" r="6.94" transform="translate(-164.87 132.63) rotate(-45)"/><circle cx="175.76" cy="363.43" r="6.94" transform="translate(-205.5 230.73) rotate(-45)"/><rect x="70.35" y="304.19" width="13.87" height="41.62" rx="6.94" transform="translate(-207.17 149.84) rotate(-45)"/><circle cx="8.6" cy="256.32" r="6.94" transform="translate(-178.73 81.16) rotate(-45)"/><circle cx="28.22" cy="275.94" r="6.94" transform="translate(-186.86 100.78) rotate(-45)"/><circle cx="47.84" cy="295.56" r="6.94" transform="translate(-194.98 120.4) rotate(-45)"/><rect x="148.82" y="382.69" width="13.87" height="41.62" rx="6.94" transform="translate(-239.7 228.32) rotate(-45)"/><rect x="188.06" y="421.93" width="13.87" height="41.62" rx="6.94" transform="translate(-255.95 267.56) rotate(-45)"/><circle cx="126.31" cy="374.07" r="6.94" transform="translate(-227.51 198.88) rotate(-45)"/><rect x="247.27" y="480.75" width="13.87" height="41.62" rx="6.94" transform="translate(-280.2 326.65) rotate(-45)"/><rect x="325.75" y="559.23" width="13.87" height="41.62" rx="6.94" transform="translate(-312.71 405.13) rotate(-45)"/><circle cx="283.62" cy="530.98" r="6.94" transform="translate(-292.39 356.07) rotate(-45)"/><circle cx="303.24" cy="550.6" r="6.94" transform="translate(-300.52 375.69) rotate(-45)"/><rect x="217.97" y="391.57" width="13.87" height="41.62" rx="6.94" transform="translate(-225.72 279.82) rotate(-45)"/><rect x="257.21" y="430.81" width="13.87" height="41.62" rx="6.94" transform="translate(-241.97 319.06) rotate(-45)"/><rect x="316.07" y="489.67" width="13.87" height="41.62" rx="6.94" transform="translate(-266.35 377.92) rotate(-45)"/><circle cx="293.57" cy="481.04" r="6.94" transform="translate(-254.16 348.48) rotate(-45)"/><circle cx="509.37" cy="697.12" r="6.94" transform="translate(-343.75 564.36) rotate(-45)"/><circle cx="489.75" cy="677.5" r="6.94" transform="translate(-335.62 544.74) rotate(-45)"/><circle cx="470.13" cy="657.88" r="6.94" transform="translate(-327.5 525.12) rotate(-45)"/><rect x="9.81" y="599.73" width="13.87" height="41.62" rx="6.94" transform="translate(-433.89 193.59) rotate(-45)"/><rect x="49.05" y="638.97" width="13.87" height="41.62" rx="6.94" transform="translate(-450.14 232.83) rotate(-45)"/><rect x="107.91" y="697.83" width="13.87" height="41.62" rx="6.94" transform="translate(-474.52 291.69) rotate(-45)"/><circle cx="85.4" cy="689.21" r="6.94" transform="translate(-462.33 262.25) rotate(-45)"/><rect x="99.16" y="510.39" width="13.87" height="41.62" rx="6.94" transform="translate(-344.54 230.6) rotate(-45)"/><rect x="138.4" y="549.63" width="13.87" height="41.62" rx="6.94" transform="translate(-360.79 269.84) rotate(-45)"/><rect x="197.26" y="608.48" width="13.87" height="41.62" rx="6.94" transform="translate(-385.17 328.7) rotate(-45)"/><circle cx="174.75" cy="599.86" r="6.94" transform="translate(-372.98 299.26) rotate(-45)"/></svg>