<svg xmlns="http://www.w3.org/2000/svg" viewBox="0 0 750 136"><title>logo-sin</title><path d="M574.38,136H480.62a19.92,19.92,0,0,1-15.36-7.2l-40-48a20,20,0,0,1,0-25.6l27.2-32.64A4,4,0,0,0,449.38,16H387a4,4,0,0,0-4,4v96a20,20,0,0,1-20,20H187a20,20,0,0,1-20-20V35.89h0l-45.43,72.7A16,16,0,0,1,92,100.11V35.89h0L35.31,126.6a19.88,19.88,0,0,1-17,9.4H0V120H18.35a4,4,0,0,0,3.39-1.88L78.43,27.41A16,16,0,0,1,108,35.89v64.22h0l45.43-72.7A16,16,0,0,1,183,35.89V116a4,4,0,0,0,4,4H363a4,4,0,0,0,4-4V20A20,20,0,0,1,387,0h62.38a19.82,19.82,0,0,1,18.11,11.52,19.79,19.79,0,0,1-2.75,21.28L437.55,65.44a4,4,0,0,0,0,5.12l40,48a4,4,0,0,0,3.07,1.44h93.76a4,4,0,0,0,3.07-6.56L510.26,32.8a19.79,19.79,0,0,1-2.75-21.28A19.82,19.82,0,0,1,525.62,0H725V16H525.62a4,4,0,0,0-3.07,6.56l67.19,80.64A20,20,0,0,1,574.38,136ZM107.93,100.2Zm59.14-64.4Zm-75,0Z"/><path d="M750,136H637a20,20,0,0,1-20-20V15.9h16V116a4,4,0,0,0,4,4H750Z"/><rect x="633" y="60" width="92" height="16"/><path d="M237.5,102.52a34.52,34.52,0,1,1,24.41-10.11A34.3,34.3,0,0,1,237.5,102.52Z"/><path d="M312.5,102.52a34.52,34.52,0,1,1,24.41-10.11A34.3,34.3,0,0,1,312.5,102.52Z"/></svg>