<svg xmlns="http://www.w3.org/2000/svg" viewBox="0 0 969.76 120.12">
<rect x="153.89" y="-5.89" width="43.96" height="131.89" rx="21.98" transform="translate(-6.47 95.98) rotate(-30)"/>
<rect x="534.76" y="0.07" width="43.96" height="120" rx="21.98"/>
<rect x="717.78" y="0.07" width="43.96" height="120" rx="21.98"/>
<rect x="534.76" y="0.07" width="120" height="43.96" rx="21.98"/>
<rect x="849.76" y="0.07" width="120" height="43.96" rx="21.98"/>
<rect x="849.76" y="76.11" width="120" height="43.96" rx="21.98"/>
<rect x="717.78" y="0.07" width="106.98" height="43.96" rx="21.98"/>
<rect x="654.76" y="76.11" width="106.98" height="43.96" rx="21.98"/>
<rect x="65.96" y="38.08" width="131.89" height="43.96" rx="21.98" transform="matrix(0.5, -0.87, 0.87, 0.5, 13.94, 144.26)"/>
<rect x="65.95" y="-5.89" width="43.96" height="131.89" rx="21.98" transform="matrix(0.87, -0.5, 0.5, 0.87, -18.25, 52.01)"/>
<rect x="-21.98" y="38.08" width="131.89" height="43.96" rx="21.98" transform="translate(-30.03 68.11) rotate(-60)"/>
<circle cx="304.76" cy="60.07" r="60"/>
<circle cx="449.76" cy="60.07" r="60"/>
</svg>