<svg xmlns="http://www.w3.org/2000/svg" 
xmlnsXlink="http://www.w3.org/1999/xlink" 
viewBox="0 0 969.76 120.1">
<defs>
<linearGradient id="a" y1="60.05" x2="969.76" y2="60.05" gradientUnits="userSpaceOnUse">
<stop offset="0" stop-color="blue" stop-opacity="0.6"/>
<stop offset="1" stop-color="#662d91"/>
</linearGradient>
</defs>
<path d="M654.76,22h0a22,22,0,0,1-22,22H578.72v54a22,22,0,0,1-22,22h0a22,22,0,0,1-22-22V22h0a22,22,0,0,1,22-22h76A22,22,0,0,1,654.76,22Zm315,0h0a22,22,0,0,0-22-22h-76a22,22,0,0,0-22,22h0a22,22,0,0,0,22,22h76A22,22,0,0,0,969.76,22Zm0,76h0a22,22,0,0,0-22-22h-76a22,22,0,0,0-22,22h0a22,22,0,0,0,22,22h76A22,22,0,0,0,969.76,98.07Zm-167-98h-63a22,22,0,0,0-22,22h0V76.09h-41a22,22,0,0,0-22,22h0a22,22,0,0,0,22,22h63a22,22,0,0,0,22-22h0V44h41a22,22,0,0,0,22-22h0A22,22,0,0,0,802.78.05ZM216.89,87.12,172.93,11c-.05-.08-.11-.15-.15-.23-.22-.36-.46-.71-.69-1.06s-.34-.52-.53-.77-.47-.6-.72-.9-.44-.55-.67-.81-.44-.45-.66-.67-.6-.61-.91-.89L168,5.16c-.37-.31-.75-.62-1.14-.91l-.55-.37c-.42-.29-.85-.58-1.29-.84l-.17-.11h0l-.48-.25c-.41-.22-.82-.44-1.25-.63s-.59-.26-.88-.38-.7-.29-1.05-.41-.73-.24-1.09-.35l-.92-.26c-.39-.1-.79-.18-1.19-.26s-.59-.11-.89-.15-.79-.11-1.19-.14L155,0l-1.09,0L152.8,0l-1,.08c-.4,0-.79.08-1.18.14s-.6.1-.9.15-.79.16-1.19.26l-.91.26c-.37.11-.73.22-1.09.35s-.71.26-1.05.41-.6.24-.89.38-.83.41-1.24.63c-.16.09-.33.16-.48.25h0l-.18.11c-.44.26-.87.55-1.29.84l-.55.37c-.39.29-.76.6-1.14.91l-.57.48c-.31.28-.61.59-.9.89s-.45.44-.66.67-.46.54-.68.81-.49.59-.72.9-.35.51-.53.77-.47.7-.68,1.06c-.05.08-.11.15-.15.23L109.92,54.15,85,11l-.15-.23c-.21-.36-.45-.71-.69-1.06s-.34-.52-.52-.77-.48-.6-.72-.9-.44-.55-.68-.81-.44-.45-.66-.67-.59-.61-.9-.89l-.58-.48c-.37-.31-.74-.62-1.14-.91-.17-.13-.36-.25-.54-.37C78,3.59,77.56,3.3,77.12,3l-.18-.11h0l-.48-.25c-.41-.22-.82-.44-1.24-.63s-.59-.26-.89-.38-.69-.29-1-.41S72.56,1,72.19.91L71.28.65c-.4-.1-.8-.18-1.2-.26s-.59-.11-.89-.15S68.4.13,68,.1L67,0,66,0,64.86,0,63.9.1c-.4,0-.79.08-1.19.14s-.59.1-.89.15-.8.16-1.19.26l-.92.26c-.36.11-.73.22-1.09.35s-.7.26-1,.41-.59.24-.88.38-.84.41-1.25.63L55,2.93,54.79,3c-.44.26-.87.55-1.3.84L53,4.25c-.39.29-.77.6-1.14.91l-.57.48c-.32.28-.61.59-.91.89s-.45.44-.66.67-.45.54-.67.81-.5.59-.73.9-.35.51-.52.77-.47.7-.69,1.06c0,.08-.1.15-.15.23L3,87.12a22,22,0,0,0,8,30h0a22,22,0,0,0,30-8.05L66,65.93,90.88,109.1l.15.24c.22.36.45.71.69,1.06s.34.52.52.77.48.6.72.9.44.55.68.81.44.45.66.67.59.61.9.89l.58.48c.37.31.74.62,1.14.91.17.13.36.25.54.37.43.29.85.58,1.29.84a1.08,1.08,0,0,1,.18.11l.48.25c.41.22.82.44,1.24.63s.59.26.89.38.69.29,1,.41.72.24,1.09.35l.91.26c.4.09.8.18,1.2.25s.59.12.89.16.79.1,1.18.14.65.06,1,.07.73,0,1.09,0l1.09,0c.32,0,.64,0,1-.07s.79-.08,1.18-.14.59-.1.89-.16.8-.16,1.19-.25l.92-.26c.36-.11.73-.22,1.09-.35s.7-.26,1-.41.59-.24.88-.38.84-.41,1.25-.63l.48-.25h0l.17-.11c.45-.26.87-.55,1.3-.84.18-.12.37-.24.54-.37.39-.29.77-.6,1.14-.91l.57-.48c.32-.28.61-.59.91-.89s.45-.44.66-.67.45-.54.67-.81.5-.59.73-.9.35-.51.52-.77.47-.7.69-1.06l.15-.24,24.93-43.17,24.93,43.17a22,22,0,1,0,38.07-22ZM364.76,60.05a60,60,0,1,0-60,60A60,60,0,0,0,364.76,60.05Zm145,0a60,60,0,1,0-60,60A60,60,0,0,0,509.76,60.05Z" style="fill:url(#a)"/></svg>