<svg xmlns="http://www.w3.org/2000/svg" viewBox="0 0 79 21.5"><title>wave-sin</title><path d="M78,21.5c-4.5,0-6.6-5.3-8.6-10.4C67.6,6.6,65.8,2,62.6,2s-5,4.6-6.8,9.1c-2,5.1-4.1,10.4-8.6,10.4s-6.6-5.3-8.6-10.4C36.8,6.6,35,2,31.8,2s-5,4.6-6.8,9.1c-2,5.1-4.1,10.4-8.6,10.4S9.8,16.2,7.8,11.1C6,6.6,4.2,2,1,2A.94.94,0,0,1,0,1,.94.94,0,0,1,1,0C5.5,0,7.6,5.3,9.6,10.4c1.8,4.5,3.6,9.1,6.8,9.1s5-4.6,6.8-9.1C25.2,5.3,27.3,0,31.8,0s6.6,5.3,8.6,10.4c1.8,4.5,3.6,9.1,6.8,9.1s5-4.6,6.8-9.1C56,5.3,58.1,0,62.6,0s6.6,5.3,8.6,10.4c1.8,4.5,3.6,9.1,6.8,9.1a1,1,0,0,1,0,2Z"/></svg>